<svg width="441" height="355" viewBox="0 0 441 355" fill="none" xmlns="http://www.w3.org/2000/svg">
<path d="M422 101.651C422 211.586 220.5 355 220.5 355C220.5 355 19 211.586 19 101.651C19 -8.28379 153.546 -34.1288 220.5 55.9843C273.266 -37.4603 422 -8.28379 422 101.651Z" fill="black"/>
<path d="M404 114.988C404 209.155 220 332 220 332C220 332 36 209.155 36 114.988C36 20.8207 159.18 -27.5583 220 87.165C268.502 -30.4119 404 20.8207 404 114.988Z" fill="#F92E61"/>
<path d="M404 114.988C404 209.155 220 332 220 332C220 332 36 209.155 36 114.988C36 20.8207 159.18 -27.5583 220 87.165C268.502 -30.4119 404 20.8207 404 114.988Z" fill="#F92E61"/>
<path d="M78.6732 83.8717C60.438 86.3673 48.9394 89.6949 41.9705 94.3296C38.7184 96.5876 31.5172 103.243 26.1744 109.185C17.6956 118.216 15.9534 120.831 14.4435 126.654C10.6106 140.677 2.3641 198.315 0.27344 225.767C-1.23648 244.543 3.52559 257.972 14.095 265.341C25.2452 273.184 36.9761 274.61 64.1547 271.401C93.3078 267.955 96.6761 266.529 116.654 248.346C127.223 238.72 128.733 236.819 130.359 231.352C132.45 223.984 132.566 221.37 130.707 216.141C127.223 205.92 117.002 201.761 103.877 205.564C101.322 206.277 99.1152 206.634 98.8829 206.396C98.6506 206.039 103.064 201.88 108.639 196.889L118.744 187.857L120.138 192.729C123.506 204.257 129.894 210.555 139.999 212.1C146.503 213.051 163.577 211.862 174.263 209.486C181.115 208.06 183.438 206.871 188.781 202.118C199.118 192.967 205.739 187.738 206.32 188.213C207.016 188.926 211.895 201.523 221.651 227.787C226.297 240.028 230.827 251.199 231.872 252.625C236.286 258.923 250.688 259.636 261.606 254.288C268.226 251.08 283.906 237.651 290.527 229.451C293.547 225.886 304 204.376 304 201.88C304 201.286 304.348 200.691 304.929 200.691C305.394 200.691 305.742 206.396 305.742 213.526C305.742 225.41 305.974 226.717 309.575 234.204C313.756 243.117 316.66 245.613 326.068 248.941C333.385 251.555 348.252 251.912 355.686 249.654C358.241 248.941 364.629 245.375 369.856 241.81L379.38 235.393L380.425 238.483C383.096 245.851 389.717 249.416 400.983 249.416C404.235 249.416 408.649 248.822 410.856 248.228C415.618 246.92 436.873 228.144 439.428 223.033C441.286 219.349 441.519 211.862 440.009 203.544C438.151 193.799 436.524 175.141 435.247 149.828C433.853 124.634 431.995 112.274 428.859 107.283C426.303 103.243 417.941 97.3006 411.088 94.6861C404.468 92.0716 386.465 91.834 377.754 94.2108C367.068 97.0629 363.351 99.5586 343.722 116.434C342.329 117.622 340.935 118.692 340.703 118.692C340.47 118.692 340.006 115.483 339.657 111.561C338.496 98.6079 333.734 94.3296 320.261 94.3296C309.11 94.4485 306.207 95.9934 291.34 110.135C279.028 121.782 278.912 122.138 272.059 140.083C265.555 156.958 264.393 157.79 261.606 147.451C260.561 143.767 258.935 138.3 258.005 135.329C257.076 132.358 255.566 126.892 254.521 123.208C253.359 118.454 251.269 114.651 247.9 110.848C247.9 110.848 244.968 107.834 242.509 106.372C239.445 104.55 234 104 234 104C220.991 103.168 217.47 104.906 204.926 117.385C194.008 128.199 192.498 130.814 192.498 139.251V145.55L174.611 146.738C153.588 148.164 148.362 150.184 137.909 160.761C134.424 164.445 130.94 167.297 130.127 167.416C129.43 167.416 128.268 164.683 127.455 161.474C125.597 153.631 120.951 148.758 114.214 147.808C111.427 147.332 102.832 147.57 95.1662 148.283C76.6987 150.066 72.5174 149.947 73.0981 148.045C73.4465 147.095 77.3956 146.382 84.2483 145.787C102.6 144.48 105.271 143.411 117.583 132.477C130.475 120.831 133.379 117.385 135.934 110.611C140.696 98.3702 136.399 88.6253 124.203 83.8717C118.047 81.3761 96.5599 81.3761 78.6732 83.8717ZM127.571 89.8137C131.637 92.3093 132.566 95.2803 131.869 103.243C131.172 110.254 126.642 117.86 121.532 120.474C118.976 121.901 112.356 122.732 98.6506 123.564C71.472 125.109 69.7298 125.347 69.0329 128.556C67.7553 134.141 65.6646 154.463 66.2454 155.176C66.71 155.532 75.5372 155.295 85.8743 154.463C113.518 152.561 113.982 152.561 118.396 156.602C121.996 159.811 122.229 160.642 122.229 167.654C122.229 174.309 121.764 175.973 118.976 179.776C117.118 182.152 114.331 184.648 112.821 185.361C111.195 185.955 99.4636 187.025 86.5712 187.857L63.1094 189.402L62.2964 192.729C61.8318 194.631 61.0187 200.454 60.5541 205.683L59.7411 215.071L70.0783 214.358C75.7695 213.883 88.5457 212.813 98.5344 211.862C119.557 209.961 123.042 210.555 125.016 216.378C129.197 228.619 121.88 241.097 108.059 245.375C96.6761 248.941 73.5627 252.03 57.7666 252.268C42.6674 252.387 41.8543 252.268 35.3501 248.941C23.0384 242.761 18.5087 232.184 20.0186 212.694C21.9931 185.48 31.6333 121.544 35.1178 111.918C37.5569 105.382 45.3388 98.2513 53.7014 95.0426C59.8573 92.6658 82.1576 90.0514 109.452 88.6253C113.285 88.3876 118.163 88.1499 120.254 88.0311C122.461 87.9122 125.713 88.7441 127.571 89.8137ZM408.649 99.6774C418.289 102.411 425.026 109.779 427 120.237C427.697 123.683 428.743 137.944 429.439 151.967C430.601 178.706 432.343 197.245 434.085 204.257C435.711 210.436 435.479 218.161 433.505 222.083C430.601 227.787 425.955 229.451 414.921 228.975C403.771 228.5 401.564 227.193 398.544 218.636C397.383 215.665 396.337 212.932 396.221 212.694C395.989 212.457 392.621 215.309 388.672 218.993C378.451 228.381 370.785 231.828 359.054 232.541C346.51 233.254 339.541 230.877 333.153 223.865C319.68 208.891 323.048 177.755 342.909 137.112C355.105 111.918 364.629 102.411 381.238 98.8455C388.439 97.3006 401.448 97.776 408.649 99.6774ZM331.295 102.648C338.147 109.541 334.082 124.158 312.711 170.387C303.768 189.521 297.612 202.949 292.385 214.477C285.068 230.758 277.75 236.819 263.813 238.245C256.031 239.077 250.688 237.175 247.784 232.422C245.926 229.57 229.085 185.005 223.626 168.605C217.005 148.758 212.243 130.219 212.243 124.396C212.243 116.434 216.076 112.393 225.484 110.373C233.73 108.709 238.957 109.541 243.371 113.344C247.552 116.909 248.249 118.692 253.94 140.083C261.257 167.06 266.716 185.599 267.762 186.668C269.039 187.976 274.266 175.497 287.971 138.895C293.314 124.872 298.889 111.561 300.283 109.422C304.464 103.48 312.479 99.7962 321.19 99.6774C327.462 99.6774 328.855 100.153 331.295 102.648ZM200.396 154.938C205.158 158.979 206.784 163.851 206.203 171.457C205.623 178.706 201.674 185.242 195.982 188.213C191.22 190.709 177.631 192.61 162.88 192.848C148.71 192.967 145.226 191.66 141.858 185.123C139.767 180.845 139.767 170.625 141.974 166.347C144.181 161.95 149.639 157.315 154.518 155.532C159.628 153.868 174.031 152.324 186.923 152.086C195.982 151.967 197.26 152.205 200.396 154.938Z" fill="black"/>
<path d="M363.282 133.037C353.99 145.159 343.537 180.455 346.208 191.031C349.112 202.915 362.934 201.014 373.039 187.466L376.523 182.831L376.175 159.063C375.71 132.681 375.013 129.947 368.973 129.947C366.767 129.947 364.908 131.017 363.282 133.037ZM355.965 181.286C355.616 192.576 354.455 194.834 351.9 189.249C350.738 186.872 350.854 184.733 352.364 178.315C353.41 173.918 354.687 170.353 355.268 170.353C355.849 170.353 356.081 175.344 355.965 181.286Z" fill="black"/>
<path d="M427.288 119.763C425.299 109.269 418.513 101.875 408.803 99.1321C401.549 97.2241 388.446 96.7471 381.193 98.2973C364.463 101.875 354.87 111.415 342.586 136.697C322.58 177.482 319.188 208.726 332.759 223.752C339.193 230.788 346.213 233.173 358.848 232.457C370.664 231.742 378.385 228.284 388.68 218.863C392.658 215.166 396.051 212.304 396.285 212.542C396.402 212.781 397.455 215.523 398.625 218.505C401.666 227.091 403.889 228.403 415.12 228.88C426.235 229.357 430.914 227.687 433.839 221.963C435.828 218.028 436.062 210.276 434.424 204.075C432.669 197.039 430.914 178.436 429.744 151.604C429.042 137.532 427.989 123.221 427.288 119.763Z" fill="#FFA6C6"/>
<path d="M313.168 170.088C334.695 123.698 338.789 109.03 331.887 102.113C329.43 99.6091 328.026 99.1321 321.708 99.1321C312.934 99.2514 304.862 102.948 300.65 108.911C299.246 111.057 293.631 124.414 288.249 138.486C274.444 175.216 269.179 187.737 267.892 186.426C266.84 185.352 261.341 166.749 253.97 139.678C248.238 118.213 247.536 116.424 243.324 112.846C238.879 109.03 233.614 108.195 225.308 109.865C215.831 111.892 211.971 115.947 211.971 123.937C211.971 129.78 216.767 148.384 223.436 168.299C228.934 184.756 245.898 229.476 247.77 232.338C250.695 237.108 256.076 239.016 263.915 238.182C277.954 236.751 285.324 230.669 292.695 214.331C297.959 202.763 304.16 189.288 313.168 170.088Z" fill="#FFA6C6"/>
<path d="M206.887 171.161C207.472 163.529 205.834 158.64 201.038 154.585C197.879 151.842 195.592 151.604 186.467 151.723C173.481 151.961 158.974 153.512 153.826 155.181C148.912 156.97 143.414 161.621 141.191 166.033C138.968 170.326 138.968 180.582 141.074 184.875C144.467 191.434 148.976 193.746 163.249 193.627C178.107 193.388 191.795 191.48 196.592 188.976C202.324 185.995 206.302 178.436 206.887 171.161Z" fill="#FFA6C6"/>
<path d="M364.007 133.462C354.715 145.583 344.262 180.879 346.933 191.455C349.837 203.34 363.658 201.438 373.763 187.89L377.248 183.256L376.899 159.488C376.435 133.105 375.738 130.372 369.698 130.372C367.491 130.372 365.633 131.441 364.007 133.462ZM356.689 181.711C356.341 193 355.18 195.258 352.624 189.673C351.463 187.296 351.579 185.157 353.089 178.74C354.134 174.343 355.412 170.777 355.993 170.777C356.573 170.777 356.806 175.769 356.689 181.711Z" fill="black"/>
<path d="M352.009 189.372C355.153 195.257 356.58 193.768 357.009 181.872C357.152 175.61 356.723 170.872 356.009 170.872C355.294 170.872 354.295 173.738 353.009 178.372C351.151 185.134 350.579 186.867 352.009 189.372Z" fill="#F92E61"/>
<path d="M131.409 103.259C132.116 95.2612 131.173 92.2771 127.048 89.7704C125.162 88.6961 121.862 87.8606 119.623 87.9799C117.501 88.0993 114.437 87.7412 110.547 87.9799C82.8494 89.4123 60.2198 92.0383 53.973 94.4256C45.4869 97.6484 37.5901 104.81 35.115 111.375C31.5791 121.044 21.7964 185.261 19.7928 212.596C18.2606 232.171 22.8572 242.795 35.3507 249.002C41.951 252.344 42.7761 252.463 58.0982 252.344C74.1276 252.105 97.5823 249.002 109.133 245.421C123.159 241.124 130.584 228.59 126.341 216.296C124.337 210.447 120.801 209.85 99.4681 211.76C89.3319 212.715 76.367 213.789 70.5917 214.267L60.1019 214.983L60.9269 205.553C61.3984 200.301 62.2234 194.452 62.6949 192.543L63.5199 189.2L87.3282 187.649C100.411 186.813 112.315 185.739 113.965 185.142C115.497 184.426 118.326 181.919 120.212 179.532C123.041 175.712 123.512 174.041 123.512 167.357C123.512 160.314 123.276 159.479 119.623 156.256C115.144 152.198 114.672 152.198 86.621 154.107C76.1312 154.943 67.1736 155.182 66.7022 154.824C66.1129 154.107 68.2344 134.696 69.5309 129.086C70.2381 125.863 72.006 125.625 99.586 124.073C113.494 123.237 118.326 122.999 120.919 121.566C126.105 118.94 130.702 110.301 131.409 103.259Z" fill="#FFA6C6"/>
</svg>
