<svg width="441" height="191" viewBox="0 0 441 191" fill="none" xmlns="http://www.w3.org/2000/svg">
<path d="M78.6732 1.87175C60.438 4.36739 48.9394 7.69492 41.9705 12.3297C38.7184 14.5876 31.5172 21.2427 26.1744 27.1847C17.6956 36.2165 15.9534 38.831 14.4435 44.6542C10.6106 58.6773 2.3641 116.315 0.27344 143.767C-1.23648 162.544 3.52559 175.972 14.095 183.341C25.2452 191.184 36.9761 192.61 64.1547 189.401C93.3078 185.955 96.6761 184.529 116.654 166.346C127.223 156.72 128.733 154.819 130.359 149.352C132.45 141.984 132.566 139.37 130.707 134.141C127.223 123.921 117.002 119.761 103.877 123.564C101.322 124.277 99.1152 124.634 98.8829 124.396C98.6506 124.039 103.064 119.88 108.639 114.889L118.744 105.857L120.138 110.729C123.506 122.257 129.894 128.555 139.999 130.1C146.503 131.051 163.577 129.863 174.263 127.486C181.115 126.06 183.438 124.871 188.781 120.118C199.118 110.967 205.739 105.738 206.32 106.213C207.016 106.926 211.895 119.523 221.651 145.787C226.297 158.028 230.827 169.199 231.872 170.625C236.286 176.923 250.688 177.636 261.606 172.288C268.226 169.08 283.906 155.651 290.527 147.451C293.547 143.886 304 122.376 304 119.88C304 119.286 304.348 118.692 304.929 118.692C305.394 118.692 305.742 124.396 305.742 131.526C305.742 143.41 305.974 144.718 309.575 152.204C313.756 161.117 316.66 163.613 326.068 166.941C333.385 169.555 348.252 169.912 355.686 167.654C358.241 166.941 364.629 163.375 369.856 159.81L379.38 153.393L380.425 156.483C383.096 163.851 389.717 167.416 400.983 167.416C404.235 167.416 408.649 166.822 410.856 166.228C415.618 164.92 436.873 146.144 439.428 141.034C441.286 137.349 441.519 129.863 440.009 121.544C438.151 111.799 436.524 93.1409 435.247 67.828C433.853 42.6339 431.995 30.2745 428.859 25.2832C426.303 21.2427 417.941 15.3007 411.088 12.6862C404.468 10.0717 386.465 9.83403 377.754 12.2108C367.068 15.063 363.351 17.5586 343.722 34.4339C342.329 35.6223 340.935 36.6919 340.703 36.6919C340.47 36.6919 340.006 33.4832 339.657 29.5615C338.496 16.6079 333.734 12.3297 320.261 12.3297C309.11 12.4485 306.207 13.9934 291.34 28.1354C279.028 39.7817 278.912 40.1383 272.059 58.0831C265.555 74.9584 264.393 75.7903 261.606 65.4512C260.561 61.7672 258.935 56.3005 258.005 53.3295C257.076 50.3585 255.566 44.8919 254.521 41.2078C253.359 36.4542 251.269 32.6513 247.9 28.8484C247.9 28.8484 244.968 25.834 242.509 24.3718C239.445 22.5501 234 22.0001 234 22.0001C220.991 21.1682 217.47 22.9064 204.926 35.3847C194.008 46.1991 192.498 48.8136 192.498 57.2512V63.5498L174.611 64.7382C153.588 66.1642 148.362 68.1845 137.909 78.7613C134.424 82.4453 130.94 85.2975 130.127 85.4163C129.43 85.4163 128.268 82.683 127.455 79.4743C125.597 71.6309 120.951 66.7584 114.214 65.8077C111.427 65.3324 102.832 65.57 95.1662 66.2831C76.6987 68.0657 72.5174 67.9468 73.0981 66.0454C73.4465 65.0947 77.3956 64.3816 84.2483 63.7874C102.6 62.4802 105.271 61.4106 117.583 50.4773C130.475 38.831 133.379 35.3846 135.934 28.6108C140.696 16.3702 136.399 6.62535 124.203 1.87175C118.047 -0.623886 96.5599 -0.623886 78.6732 1.87175ZM127.571 7.81375C131.637 10.3094 132.566 13.2804 131.869 21.2427C131.172 28.2542 126.642 35.86 121.532 38.4745C118.976 39.9006 112.356 40.7325 98.6506 41.5643C71.472 43.1093 69.7298 43.3469 69.0329 46.5556C67.7553 52.1411 65.6646 72.4628 66.2454 73.1758C66.71 73.5323 75.5372 73.2946 85.8743 72.4628C113.518 70.5613 113.982 70.5613 118.396 74.6019C121.996 77.8106 122.229 78.6424 122.229 85.654C122.229 92.3091 121.764 93.9728 118.976 97.7757C117.118 100.153 114.331 102.648 112.821 103.361C111.195 103.955 99.4636 105.025 86.5712 105.857L63.1094 107.402L62.2964 110.729C61.8318 112.631 61.0187 118.454 60.5541 123.683L59.7411 133.071L70.0783 132.358C75.7695 131.883 88.5457 130.813 98.5344 129.863C119.557 127.961 123.042 128.555 125.016 134.378C129.197 146.619 121.88 159.097 108.059 163.375C96.6761 166.941 73.5627 170.03 57.7666 170.268C42.6674 170.387 41.8543 170.268 35.3501 166.941C23.0384 160.761 18.5087 150.184 20.0186 130.694C21.9931 103.48 31.6333 39.5441 35.1178 29.918C37.5569 23.3818 45.3388 16.2514 53.7014 13.0427C59.8573 10.6659 82.1576 8.05144 109.452 6.62535C113.285 6.38766 118.163 6.14998 120.254 6.03114C122.461 5.91231 125.713 6.74419 127.571 7.81375ZM408.649 17.6775C418.289 20.4108 425.026 27.7789 427 38.2368C427.697 41.6832 428.743 55.944 429.439 69.9671C430.601 96.7061 432.343 115.245 434.085 122.257C435.711 128.436 435.479 136.161 433.505 140.083C430.601 145.787 425.955 147.451 414.921 146.976C403.771 146.5 401.564 145.193 398.544 136.636C397.383 133.665 396.337 130.932 396.221 130.694C395.989 130.457 392.621 133.309 388.672 136.993C378.451 146.381 370.785 149.828 359.054 150.541C346.51 151.254 339.541 148.877 333.153 141.865C319.68 126.892 323.048 95.7554 342.909 55.1121C355.105 29.918 364.629 20.4108 381.238 16.8456C388.439 15.3007 401.448 15.776 408.649 17.6775ZM331.295 20.6485C338.147 27.5412 334.082 42.1585 312.711 88.3873C303.768 107.521 297.612 120.95 292.385 132.477C285.068 148.758 277.75 154.819 263.813 156.245C256.031 157.077 250.688 155.175 247.784 150.422C245.926 147.57 229.085 103.005 223.626 86.6047C217.005 66.7584 212.243 48.2194 212.243 42.3962C212.243 34.4339 216.076 30.3934 225.484 28.3731C233.73 26.7093 238.957 27.5412 243.371 31.3441C247.552 34.9093 248.249 36.6919 253.94 58.0831C261.257 85.0598 266.716 103.599 267.762 104.668C269.039 105.976 274.266 93.4975 287.971 56.8947C293.314 42.8716 298.889 29.5615 300.283 27.4224C304.464 21.4804 312.479 17.7963 321.19 17.6775C327.462 17.6775 328.855 18.1528 331.295 20.6485ZM200.396 72.9381C205.158 76.9787 206.784 81.8511 206.203 89.4569C205.623 96.7061 201.674 103.242 195.982 106.213C191.22 108.709 177.631 110.61 162.88 110.848C148.71 110.967 145.226 109.66 141.858 103.124C139.767 98.8453 139.767 88.625 141.974 84.3468C144.181 79.9497 149.639 75.3149 154.518 73.5323C159.628 71.8686 174.031 70.3236 186.923 70.086C195.982 69.9671 197.26 70.2048 200.396 72.9381Z" fill="black"/>
<path d="M363.282 51.0374C353.99 63.1591 343.537 98.4546 346.208 109.031C349.112 120.915 362.934 119.014 373.039 105.466L376.523 100.831L376.175 77.0634C375.71 50.6809 375.013 47.9475 368.973 47.9475C366.767 47.9475 364.908 49.0171 363.282 51.0374ZM355.965 99.2865C355.616 110.576 354.455 112.834 351.9 107.249C350.738 104.872 350.854 102.733 352.364 96.3155C353.41 91.9184 354.687 88.3532 355.268 88.3532C355.849 88.3532 356.081 93.3445 355.965 99.2865Z" fill="black"/>
<path d="M427.288 37.763C425.299 27.2687 418.513 19.875 408.803 17.1322C401.549 15.2241 388.446 14.7471 381.193 16.2974C364.463 19.875 354.87 29.4153 342.586 54.697C322.58 95.4817 319.188 126.726 332.759 141.752C339.193 148.788 346.213 151.173 358.848 150.457C370.664 149.742 378.385 146.284 388.68 136.863C392.658 133.166 396.051 130.304 396.285 130.542C396.402 130.781 397.455 133.523 398.625 136.505C401.666 145.091 403.889 146.403 415.12 146.88C426.235 147.357 430.914 145.687 433.839 139.963C435.828 136.028 436.062 128.276 434.424 122.075C432.669 115.039 430.914 96.4357 429.744 69.6037C429.042 55.5318 427.989 41.2214 427.288 37.763Z" fill="#FFA6C6"/>
<path d="M313.168 88.0879C334.695 41.6984 338.789 27.0302 331.887 20.1135C329.43 17.6092 328.026 17.1322 321.708 17.1322C312.934 17.2514 304.862 20.9483 300.65 26.9109C299.246 29.0575 293.631 42.4139 288.249 56.4858C274.444 93.2159 269.179 105.737 267.892 104.426C266.84 103.352 261.341 84.7489 253.97 57.6783C248.238 36.2127 247.536 34.4239 243.324 30.8463C238.879 27.0302 233.614 26.1954 225.308 27.865C215.831 29.8923 211.971 33.9469 211.971 41.9369C211.971 47.7803 216.767 66.3838 223.436 86.2992C228.934 102.756 245.898 147.476 247.77 150.338C250.695 155.108 256.076 157.016 263.915 156.182C277.954 154.751 285.324 148.669 292.695 132.331C297.959 120.763 304.16 107.288 313.168 88.0879Z" fill="#FFA6C6"/>
<path d="M206.887 89.1612C207.472 81.529 205.834 76.6396 201.038 72.585C197.879 69.8422 195.592 69.6037 186.467 69.7229C173.481 69.9614 158.974 71.5117 153.826 73.1813C148.912 74.9701 143.414 79.621 141.191 84.0333C138.968 88.3265 138.968 98.5823 141.074 102.875C144.467 109.434 148.976 111.746 163.249 111.627C178.107 111.388 191.795 109.48 196.592 106.976C202.324 103.995 206.302 96.4357 206.887 89.1612Z" fill="#FFA6C6"/>
<path d="M364.007 51.4616C354.715 63.5833 344.262 98.8788 346.933 109.456C349.837 121.34 363.658 119.438 373.763 105.89L377.248 101.256L376.899 77.4876C376.435 51.1051 375.738 48.3717 369.698 48.3717C367.491 48.3717 365.633 49.4413 364.007 51.4616ZM356.689 99.7107C356.341 111 355.18 113.258 352.624 107.673C351.463 105.296 351.579 103.157 353.089 96.7397C354.134 92.3426 355.412 88.7774 355.993 88.7774C356.573 88.7774 356.806 93.7687 356.689 99.7107Z" fill="black"/>
<path d="M352.009 107.372C355.153 113.257 356.58 111.768 357.009 99.8718C357.152 93.6106 356.723 88.8719 356.009 88.8719C355.294 88.8719 354.295 91.7384 353.009 96.3718C351.151 103.134 350.579 104.867 352.009 107.372Z" fill="white"/>
<path d="M131.409 21.2586C132.116 13.2612 131.173 10.2771 127.048 7.77048C125.162 6.6962 121.862 5.86064 119.623 5.98C117.501 6.09935 114.437 5.74126 110.547 5.98C82.8494 7.41237 60.2198 10.0384 53.973 12.4256C45.4869 15.6485 37.5901 22.8103 35.115 29.3753C31.5791 39.0438 21.7964 103.261 19.7928 130.596C18.2606 150.171 22.8572 160.795 35.3507 167.002C41.951 170.344 42.7761 170.463 58.0982 170.344C74.1276 170.105 97.5823 167.002 109.133 163.421C123.159 159.124 130.584 146.59 126.341 134.296C124.337 128.447 120.801 127.85 99.4681 129.76C89.3319 130.715 76.367 131.789 70.5917 132.267L60.1019 132.983L60.9269 123.553C61.3984 118.301 62.2234 112.452 62.6949 110.543L63.5199 107.2L87.3282 105.649C100.411 104.813 112.315 103.739 113.965 103.142C115.497 102.426 118.326 99.9192 120.212 97.5319C123.041 93.7123 123.512 92.0412 123.512 85.3569C123.512 78.3144 123.276 77.4788 119.623 74.256C115.144 70.1976 114.672 70.1977 86.621 72.1075C76.1312 72.943 67.1736 73.1818 66.7022 72.8237C66.1129 72.1075 68.2344 52.6963 69.5309 47.0862C70.2381 43.8634 72.006 43.6246 99.586 42.0729C113.494 41.2374 118.326 40.9987 120.919 39.5663C126.105 36.9403 130.702 28.301 131.409 21.2586Z" fill="#FFA6C6"/>
</svg>
