<svg width="65" height="65" viewBox="0 0 65 65" fill="none" xmlns="http://www.w3.org/2000/svg">
<path d="M27.4219 46.7188C27.4219 46.7188 29.4531 48.75 32.5 48.75C35.5469 48.75 37.5781 46.7188 37.5781 46.7188M58.9062 32.5C58.9062 47.0838 47.0838 58.9062 32.5 58.9062C17.9162 58.9062 6.09375 47.0838 6.09375 32.5C6.09375 17.9162 17.9162 6.09375 32.5 6.09375C47.0838 6.09375 58.9062 17.9162 58.9062 32.5Z" stroke="#EE7C9E" stroke-width="3" stroke-linecap="round" stroke-linejoin="round"/>
<path d="M48.75 36.5625C48.75 38.8062 46.9312 40.625 44.6875 40.625C42.4438 40.625 40.625 38.8062 40.625 36.5625C40.625 34.3188 42.4438 32.5 44.6875 32.5C46.9312 32.5 48.75 34.3188 48.75 36.5625Z" fill="#EE7C9E"/>
<path d="M24.375 36.5625C24.375 38.8062 22.5562 40.625 20.3125 40.625C18.0688 40.625 16.25 38.8062 16.25 36.5625C16.25 34.3188 18.0688 32.5 20.3125 32.5C22.5562 32.5 24.375 34.3188 24.375 36.5625Z" fill="#EE7C9E"/>
</svg>
