<svg width="65" height="65" viewBox="0 0 65 65" fill="none" xmlns="http://www.w3.org/2000/svg">
<path d="M31.5779 10.1244C31.9408 9.33744 33.0593 9.33743 33.4223 10.1244L39.7122 23.7607C39.8601 24.0815 40.1641 24.3023 40.5148 24.3439L55.4274 26.112C56.288 26.214 56.6336 27.2778 55.9974 27.8662L44.9721 38.062C44.7128 38.3019 44.5967 38.6592 44.6655 39.0056L47.5922 53.7347C47.7611 54.5847 46.8562 55.2422 46.1 54.8189L32.9962 47.4839C32.688 47.3114 32.3122 47.3114 32.004 47.4839L18.9002 54.8189C18.144 55.2422 17.2391 54.5847 17.408 53.7347L20.3347 39.0056C20.4035 38.6592 20.2874 38.3019 20.0281 38.062L9.00284 27.8662C8.36655 27.2778 8.71218 26.214 9.57282 26.112L24.4854 24.3439C24.8361 24.3023 25.1401 24.0815 25.288 23.7607L31.5779 10.1244Z" stroke="#EE7C9E" stroke-width="3" stroke-linecap="round" stroke-linejoin="round"/>
</svg>
